PathFileType	4	(X/Y/Z)	/Users/niels/Desktop/University/Third Semester/Perception and Action/Exam/Gymnastics Motion Tracking/Code for Gym Tracking/Analyzed Data/Webcam_Backflip/id4_2_trajectory_Sports2D/id4_2_trajectory_Sports2D_px_person00.trc
DataRate	CameraRate	NumFrames	NumMarkers	Units	OrigDataRate	OrigDataStartFrame	OrigNumFrames
29.714285714285715	29.714285714285715	12	22	m	29.714285714285715	65	105
Frame#	Time	Hip			RHip			RKnee			RAnkle			RBigToe			RSmallToe			RHeel			LHip			LKnee			LAnkle			LBigToe			LSmallToe			LHeel			Neck			Head			Nose			RShoulder			RElbow			RWrist			LShoulder			LElbow			LWrist		
		X1	Y1	Z1	X2	Y2	Z2	X3	Y3	Z3	X4	Y4	Z4	X5	Y5	Z5	X6	Y6	Z6	X7	Y7	Z7	X8	Y8	Z8	X9	Y9	Z9	X10	Y10	Z10	X11	Y11	Z11	X12	Y12	Z12	X13	Y13	Z13	X14	Y14	Z14	X15	Y15	Z15	X16	Y16	Z16	X17	Y17	Z17	X18	Y18	Z18	X19	Y19	Z19	X20	Y20	Z20	X21	Y21	Z21	X22	Y22	Z22
65	2.1875	0.9315839166884414	-0.6230689760164271	0.0	0.9325391062890848	-0.6238014093605235	0.0	0.9454751323749798	-0.7456803156316371	0.0	0.9488322804256724	-0.8671819348738724	0.0	0.9933420141848487	-0.8888460674579141	0.0	0.9842830639639951	-0.8914652369943894	0.0	0.9427051271530529	-0.8862262456684036	0.0	0.9315214892735157	-0.6212510210327363	0.0	0.9433274132645891	-0.7442842652382675	0.0	0.9454890121086026	-0.8598320309054921	0.0	0.9842515437998665	-0.8829980272631648	0.0	0.9804265080585662	-0.8802406730261233	0.0	0.9368959296055365	-0.8774014362536877	0.0	1.0166469721627185	-0.4776363771763217	0.0	1.0699021767535857	-0.4165013522434575	0.0	1.0625868374891714	-0.4585704661472147	0.0	1.0232090192307672	-0.4877065311807829	0.0	1.0562724399780192	-0.5686217582527656	0.0	1.0857613671394164	-0.6416118938722473	0.0	0.9996322018187991	-0.4812725282852593	0.0	1.0418904718365782	-0.5614661999499014	0.0	1.0760253720645292	-0.6279180018896324	0.0
66	2.2211538461538463	0.9324578365148956	-0.6237271452188875	0.0	0.9345684506508594	-0.6246071076568293	0.0	0.9464221544358151	-0.7460629876558426	0.0	0.9487412317164942	-0.8681267204231413	0.0	0.9940394067491275	-0.889694076393068	0.0	0.9850584344166561	-0.8922343125530312	0.0	0.9430776451441664	-0.8880709316291432	0.0	0.9316309898090727	-0.6221653221567958	0.0	0.9437980809191565	-0.7450281349047958	0.0	0.9456603865509605	-0.8608356362306812	0.0	0.9850669447224886	-0.8835840877286968	0.0	0.9800327278648672	-0.8812136363971982	0.0	0.9372340488985281	-0.8790235010096121	0.0	1.0181476249812629	-0.4792481269381536	0.0	1.071184963580387	-0.41839294048503317	0.0	1.0644450555427505	-0.4601179299186842	0.0	1.0246228321393787	-0.4899399736155092	0.0	1.0419128612687405	-0.5756940066202367	0.0	1.057809095536017	-0.6531766463533878	0.0	0.9989109674050525	-0.48282053085159216	0.0	1.0244484470800643	-0.5664027042927955	0.0	1.0466921833853762	-0.6369020884085009	0.0
67	2.254807692307692	0.9339963662430737	-0.6237821797046003	0.0	0.9370914332971483	-0.624671697584235	0.0	0.9473921382831183	-0.7459186989517944	0.0	0.9486653603662011	-0.8681030792060705	0.0	0.9935957424900966	-0.8897050086928067	0.0	0.9847051221998275	-0.8922929829151489	0.0	0.943232767785195	-0.8888601524946977	0.0	0.9325222519983143	-0.6224207348779944	0.0	0.9445436705886967	-0.7451560528763685	0.0	0.9460071567084842	-0.8610072513567709	0.0	0.9853744895450078	-0.8834609056181976	0.0	0.9789639760470001	-0.8813687416870088	0.0	0.9377353590971186	-0.8796484629869553	0.0	1.0197055345084791	-0.47986377879019204	0.0	1.0733361880816368	-0.42016003208357766	0.0	1.066466270452927	-0.4612031283316193	0.0	1.025019879181537	-0.4906454160097962	0.0	1.0264371579852278	-0.5775488675087438	0.0	1.0279934913588915	-0.6562869990438234	0.0	0.9989271308162274	-0.48325603954245655	0.0	1.0072912477883318	-0.5668374629975804	0.0	1.0167404193738654	-0.638895599635241	0.0
68	2.2884615384615383	0.9363308356803722	-0.6233929253513512	0.0	0.9398857178495489	-0.6241566781855444	0.0	0.9484053231900813	-0.7453548467532921	0.0	0.9486939101821565	-0.8671974398275778	0.0	0.99222181723208	-0.888903639300672	0.0	0.983413907529361	-0.8917186575069722	0.0	0.9432311764268145	-0.8884899918346674	0.0	0.9344673138725631	-0.622131052120002	0.0	0.9456527526179423	-0.744645891601289	0.0	0.9464254045629082	-0.8602174962101014	0.0	0.9851766446896937	-0.8825635071793814	0.0	0.9775653663515914	-0.8806140108029773	0.0	0.9382856682307993	-0.8791383760964463	0.0	1.021161339491531	-0.4795026677458561	0.0	1.0763884881353243	-0.4216498481919015	0.0	1.0684666742625202	-0.4616681096451532	0.0	1.0244691087940767	-0.48984105520352317	0.0	1.0104688996551736	-0.5737888776967657	0.0	0.997270101013819	-0.6503166354318033	0.0	0.9998797084063537	-0.4825168359512916	0.0	0.991709243240002	-0.5626029284235127	0.0	0.9877456981235597	-0.6336366021151967	0.0
69	2.3221153846153846	0.9393504318823488	-0.6226619403044026	0.0	0.9425405342799117	-0.62312616757864	0.0	0.9495523180125317	-0.7444940253684016	0.0	0.9489810842432044	-0.8656343340960516	0.0	0.9903247777290547	-0.887490022985578	0.0	0.9815852488040279	-0.8907581328019227	0.0	0.9432119060282049	-0.887056091129972	0.0	0.9373530802268888	-0.6212748607773718	0.0	0.947119176101801	-0.7435583106353806	0.0	0.9469158450413813	-0.8585416699239278	0.0	0.9848748093855615	-0.8809943856931081	0.0	0.9763657312402758	-0.8790602865184666	0.0	0.9388851109338174	-0.8775876128572606	0.0	1.022401692123616	-0.47822848685245195	0.0	1.0801008065992765	-0.42257976997631697	0.0	1.0703302760163302	-0.46134205004415907	0.0	1.0232242837601557	-0.4877215154712139	0.0	0.9946780745484343	-0.5644320881006006	0.0	0.9668657762844972	-0.6350358778622077	0.0	1.001682040043194	-0.48053965392944337	0.0	0.9785875474692576	-0.5534892896162844	0.0	0.9610255009618149	-0.6206759152042519	0.0
70	2.355769230769231	0.9426152161536085	-0.6214903201296847	0.0	0.9445591887981645	-0.6214967186784505	0.0	0.9509022648196661	-0.7434130987676997	0.0	0.949649042121318	-0.8636144464416666	0.0	0.9883271541450207	-0.8857748840260189	0.0	0.9795956162512803	-0.8896510322435106	0.0	0.9432995737657303	-0.8847565893677213	0.0	0.9406275949379809	-0.6196643533361459	0.0	0.9488446759005219	-0.7420232687931181	0.0	0.9475869195264507	-0.8562085841794674	0.0	0.9849307644368329	-0.8790335262513794	0.0	0.9758145900163345	-0.8769700690590965	0.0	0.9396241068715174	-0.8752466076713118	0.0	1.0233097849083301	-0.47610974929997424	0.0	1.0840788025427368	-0.4226780053620313	0.0	1.0719024264167731	-0.4601283277831835	0.0	1.0215991697892484	-0.4845511028939858	0.0	0.9798052722139843	-0.5499277023183741	0.0	0.9384781050097211	-0.6107076229149667	0.0	1.0039545125087246	-0.47733504085989775	0.0	0.9682835291765742	-0.5394116404486973	0.0	0.9376783416687368	-0.5995511357919593	0.0
71	2.3894230769230766	0.9454778511764511	-0.6196400977544745	0.0	0.9456222447198067	-0.619151383494705	0.0	0.95244821122949	-0.7420743705146197	0.0	0.9506888203865554	-0.8612026153290784	0.0	0.9865531095381105	-0.8840096809116121	0.0	0.9776707376984638	-0.8884576299848299	0.0	0.9435390361969694	-0.8817702570589449	0.0	0.9434714257185199	-0.6171240641003526	0.0	0.9506972754460874	-0.7401367105497307	0.0	0.9485723527659139	-0.8534673131859641	0.0	0.9855680409231069	-0.8769427393283564	0.0	0.9760519421923831	-0.8745943417234415	0.0	0.9405965128935897	-0.8723583159635897	0.0	1.0237699841972236	-0.47319298954189143	0.0	1.0878331661561935	-0.4218377549305151	0.0	1.07293234335774	-0.45800593397993145	0.0	1.0198705787455902	-0.4805836303014173	0.0	0.9667234392760873	-0.5311146479148375	0.0	0.914201091579688	-0.578175881106915	0.0	1.0061319071308081	-0.473126438585796	0.0	0.960726433568263	-0.5208356400018499	0.0	0.9187047907894519	-0.5703376737676976	0.0
72	2.423076923076923	0.947305296986961	-0.6169304283350018	0.0	0.9457047644774137	-0.6161015425840055	0.0	0.9541968727297381	-0.7402895299469494	0.0	0.9519959249515523	-0.8583692688079717	0.0	0.9852516246217708	-0.8822624927689967	0.0	0.9760338539467585	-0.887054468099186	0.0	0.9439399431738303	-0.878224243208669	0.0	0.9451020887080555	-0.6136891527730999	0.0	0.9526316894409875	-0.7378366288381464	0.0	0.9499321803064552	-0.8504743144937322	0.0	0.9867524218403241	-0.874744039955991	0.0	0.976897808076135	-0.8720082030081258	0.0	0.9418073952922215	-0.8690381988836272	0.0	1.0237321982106045	-0.4695455356860079	0.0	1.090827414137662	-0.4202480786960865	0.0	1.0731371034996438	-0.4550347536949204	0.0	1.0182170831867294	-0.47606666106164935	0.0	0.9562864052800559	-0.50921589737944	0.0	0.8959640599463873	-0.5392222075234139	0.0	1.007702315549871	-0.4683602307279101	0.0	0.9555119111185212	-0.49919106960387877	0.0	0.9048335468451505	-0.5344396211348775	0.0
73	2.456730769230769	0.9476517535832636	-0.6133105379509429	0.0	0.9448800823039248	-0.6124894648779191	0.0	0.9562604539660137	-0.737730923082204	0.0	0.9534542374211296	-0.8550582969241267	0.0	0.9846145300121114	-0.8803472333244793	0.0	0.9749958046558296	-0.8851757061478731	0.0	0.9445106212217838	-0.8741911718987214	0.0	0.9450677525824015	-0.6095688418570356	0.0	0.954747663483271	-0.7348767079139602	0.0	0.951609389834159	-0.8472405733808367	0.0	0.9883527380507594	-0.8722259769943083	0.0	0.9780742999271032	-0.8691074760564874	0.0	0.9431131309014914	-0.8653205342591601	0.0	1.0232402137903487	-0.4653468908061459	0.0	1.0926877191478286	-0.41839919228960387	0.0	1.0723473142797886	-0.45143675960174323	0.0	1.0167089522451682	-0.47127931001828177	0.0	0.9489791319098295	-0.4859022761450528	0.0	0.8847104834229126	-0.4969952356328592	0.0	1.0084160285473238	-0.4635344017269186	0.0	0.9519835063365407	-0.4767019493219518	0.0	0.8961726406784305	-0.4949304408428817	0.0
74	2.4903846153846154	0.9463453070396958	-0.6088347768142374	0.0	0.9431017385997374	-0.6084817002808035	0.0	0.9588155845060207	-0.7340391883787261	0.0	0.9549180393585139	-0.8511731556881522	0.0	0.9847583640413871	-0.8778113368074979	0.0	0.9748105953579809	-0.8824260625030166	0.0	0.9451805524285639	-0.8696656276022775	0.0	0.9434192471454967	-0.6050270690006525	0.0	0.9572322647666607	-0.7309602150144754	0.0	0.9534461068789558	-0.8436432572088578	0.0	0.9902790734675246	-0.8691591819415858	0.0	0.9795047688828017	-0.8657551763173984	0.0	0.9442386909962494	-0.8612759552166168	0.0	1.0224127255560493	-0.4609587058991491	0.0	1.0934204520435533	-0.4168847660323679	0.0	1.070657914627602	-0.44767520020337903	0.0	1.0153501460553165	-0.46652913744733054	0.0	0.9447476499692757	-0.46318024262368485	0.0	0.879979135509538	-0.45563055554701937	0.0	1.008350168119841	-0.45904824673519595	0.0	0.9494907815494946	-0.4556000247724032	0.0	0.8921319212627262	-0.45588005631720807	0.0
75	2.5240384615384612	0.943471625845416	-0.6037260578466039	0.0	0.940238632504792	-0.604248344355353	0.0	0.962028629511601	-0.7289966416640532	0.0	0.956175343800336	-0.8465626281928089	0.0	0.985644383466883	-0.874064014272827	0.0	0.9754750349201172	-0.8783540773205109	0.0	0.9457515800825911	-0.8645691238161033	0.0	0.9406448906037972	-0.600399323184378	0.0	0.9603058822704154	-0.7259181305065912	0.0	0.9552090476192912	-0.8394869217268585	0.0	0.9923876427239614	-0.8654164351588616	0.0	0.9813002325365017	-0.861830727133725	0.0	0.9448409951372911	-0.8569657622636826	0.0	1.021406298388747	-0.45692223157338424	0.0	1.0933720186036435	-0.41617871865230827	0.0	1.0684854044356649	-0.4444481268224107	0.0	1.0141093061149034	-0.4621689770772279	0.0	0.9430785153892502	-0.4430583732188053	0.0	0.8801563280548959	-0.4191505080725202	0.0	1.0078032607071885	-0.4552344769622822	0.0	0.9476536669603762	-0.43752679274083334	0.0	0.8916211659488107	-0.4211879998484096	0.0
76	2.5576923076923075	0.939281301737255	-0.5984500438842378	0.0	0.9362568872428089	-0.5999964925662028	0.0	0.9660280501114596	-0.7226245241623728	0.0	0.9569808603807806	-0.8410619653831051	0.0	0.9869972133620909	-0.8686128520745697	0.0	0.9766837334032016	-0.8726034470014323	0.0	0.9459587372807098	-0.8587856260837593	0.0	0.937330529759229	-0.5960767734576808	0.0	0.9641741669072311	-0.7197749271208455	0.0	0.9566066898918586	-0.8345578654001061	0.0	0.9942991644953604	-0.8608783533370604	0.0	0.9834109071256374	-0.8571190213203052	0.0	0.9445887188337451	-0.8522756745113176	0.0	1.0203744187856427	-0.45389019109580375	0.0	1.0930434723053388	-0.41658872461278273	0.0	1.0664767469904983	-0.44260630768878406	0.0	1.0129446904580077	-0.4587091730374737	0.0	0.9430494697625433	-0.4272743805099078	0.0	0.8829448084320823	-0.3906631711374971	0.0	1.0070841244185886	-0.4524454281799991	0.0	0.9462823998663165	-0.423566751551352	0.0	0.8931507768809006	-0.3938617079177127	0.0
